<?xml version="1.0" encoding="UTF-8"?>
<svg xmlns="http://www.w3.org/2000/svg" xmlns:xlink="http://www.w3.org/1999/xlink" version="1.1" id="Ebene_1" x="0px" y="0px" viewBox="0 0 669.7 167.1" style="enable-background:new 0 0 669.7 167.1;" xml:space="preserve">
<style type="text/css">
	.st0{fill:#FAF6EA;}
	.st1{display:none;}
	.st2{display:inline;}
	.st3{fill:none;}
	.st4{fill:#010101;}
	.st5{font-family:'BerninaSans-Light';}
	.st6{font-size:31px;}
	.st7{letter-spacing:4;}
</style>
<g id="Black_JMEM">
	<g>
		<path class="st0" d="M282.6,103.3h-9.3v-8.2h9.3v-9.5h-7.2c-5.4,0-10.2,3.3-12.1,8.3l-3.6,9.4l-2.8,7.3l-2.9,7.6l-6.2,16.1    l-1.4,3.7l-1.6-4.1l-9-22.7l-0.3-0.6l-7.2-18.2l-2.7-6.9h-16.2h-9v5.6v26.7v27.3v10.5v7.7h3.5c5.6,0,10.4-3.6,12.2-8.6    c0.5-1.4,0.8-2.9,0.8-4.4v-11v-25.8V105l3,7.9l8.2,21.9l7,18.7l2.2,6h15.5l3.1-8.3l4.9-13.1l6.4-16.9l3.2-8.4l0.8-2.2l2.1-5.5v6.5    v1.8v8.1v41.9h17.8V120v-2v-2v-3.4h-8.5V103.3z"></path>
		<path class="st0" d="M164.3,149.2c-0.4,0-0.7-0.1-1.1-0.1v-16.5v-2.2h4.9h9.3c5.8,0,10.6-3.8,12.3-8.9c0.4-1.3,0.6-2.6,0.6-4v-1.3    h-27.1V99.7h19.1c4.7,0,8.8-2.5,11.1-6.3c1.2-2,1.9-4.3,1.9-6.7v-1.1h-50.7v10.9v44.8v4.1V158v5.4h39.5c5.2,0,9.7-3.1,11.7-7.5    c0.8-1.7,1.2-3.5,1.2-5.5v-1.1h-17.9L164.3,149.2L164.3,149.2z"></path>
		<path class="st0" d="M21.3,98.6v28.9v1.5v6.9c0,4.5,0,7.7-1.8,10.4c-1.8,2.6-5,3.6-8.5,3.6c-4.1,0-8.9-1.4-8.9-1.4H1.3v5.2v9.1    c0,0,4.5,1.1,11.1,1.1c7.6,0,14.8-1.5,20-5.8c1.3-1.1,2.5-2.3,3.5-3.7c3.1-4.4,4-9.5,4.3-14.3c0.1-2,0.1-3.9,0.1-5.8v-15.9V85.6    h-6C27.1,85.6,21.3,91.4,21.3,98.6z"></path>
		<path class="st0" d="M110,93.9l-3,7.8l-2.8,7.4l-6.4,16.7l-4.7,12.3l-6.4-16.2l-8.8-22.3L76,94.7l-3.6-9.2H62.1h-4.4H47.1v31v26.9    v15.2v4.6h3.5c3.8,0,7.3-1.7,9.6-4.3c2.1-2.3,3.3-5.3,3.3-8.7v-1.4v-32.1v-11.9l4.7,12.6l13.1,34.8l2.5,6.7l0.1,0.4h15.5l0.2-0.5    l1.7-4.6L110,131l8.2-22l1.5-4.1v3.8v26.7v16.3v6.8v4.7h17.9V158v-13.8v-1.3V99.7V87.6v-2h-15.5C116.7,85.6,111.9,88.9,110,93.9z"></path>
		<polygon class="st0" points="365.9,153.6 347.4,88.1 340.6,88.1 321,153.6 302.9,85.6 295.7,85.6 316.9,163.3 323.7,163.3     343.3,97.3 362.2,163.3 368.7,163.3 391.5,85.6 385.2,85.6   "></polygon>
		<rect x="406.7" y="85.6" class="st0" width="6.8" height="77.7"></rect>
		<polygon class="st0" points="443,85.6 436.2,85.6 436.2,163.3 476.9,163.3 476.9,157.9 443,157.9   "></polygon>
		<polygon class="st0" points="497.4,125.1 526.7,125.1 526.7,119.7 497.4,119.7 497.4,91 531.7,91 531.7,85.6 490.6,85.6     490.6,163.3 533.4,163.3 533.4,157.9 497.4,157.9   "></polygon>
		<path class="st0" d="M598.4,106.8c0-7.5-2.4-13.6-8.4-17.5c-5.8-3.8-12.3-3.7-17.3-3.7h-21.6v77.7h6.8v-34.5h16.4l20.6,34.5h8    l-21.2-35.1C590.9,126.3,598.4,120.1,598.4,106.8z M572.7,123.6h-14.8V91.1h14.8c2.6,0,8.6,0,12.7,2.8c3.6,2.5,5.8,7.3,5.8,13.3    c0,6.2-2.3,11-5.8,13.4C581.3,123.4,575.3,123.6,572.7,123.6z"></path>
		<path class="st0" d="M636.3,53.4c0.8-6.2-4.3-12.7-4.3-12.7c-4.6,8.4-24.6,29-23.5,0c0,0-7.9,4.6-12.8,12.5    c12.5,0.1,12.4,22.2,8.6,36C614.9,60.8,630,52.2,636.3,53.4z"></path>
		<path class="st0" d="M623.3,48.7c3.2-3.1,4.7-7.6,2.4-10s-7.5-1.8-10.7,1.3c-3.2,3.1-4.3,8.1-2.1,10.5    C615.3,52.8,620.1,51.7,623.3,48.7z"></path>
		<path class="st0" d="M600.7,70.8c0,0-33.8-6.7-30.2-22.5c3-10.3,19.3-16.8,40.7-14.7c-20.4-5.3-42.7,0.7-46,13.3    C560,68.2,600.7,70.8,600.7,70.8z"></path>
		<path class="st0" d="M667.4,35.6c-4.2-19-41.5-41.4-87.9-28.4c54.8-5.8,73.2,20.6,73.2,20.6s26.7,30-33.6,44.2    C656.8,69.2,671.6,54.6,667.4,35.6z"></path>
	</g>
</g>
<g id="Layer_2" class="st1">
	<g id="Colourtext_JMEM_1_" class="st2">
		<g>
			<rect x="24.6" y="92.3" class="st3" width="535" height="55.1"></rect>
			<text transform="matrix(1 0 0 1 48.0657 116.4722)" class="st4 st5 st6 st7">Jugend mit einer Mission</text>
			<g>
				<g>
					<path class="st4" d="M272.6,26.7v-9.3h-9.3V9.2h9.3v-9.5h-7.2C260-0.3,255.2,3,253.3,8l-3.6,9.4c4.3,2.9,8.1,5.3,11.5,7.1       l2.1-5.5v6.5c8.1,4.1,13.6,5.2,17.9,4.3v-3.3h-8.6V26.7z"></path>
					<path class="st4" d="M11.3,43.1c6.4,2,10.6,6.4,18.9,11.1c0.1-2,0.1-3.9,0.1-5.8V32.5c-6.3,2.1-12.9,5.3-19,9.1V43.1z"></path>
					<path class="st4" d="M109.9,65.9c5-1.6,10.5-4,17.9-7.4v-1.3c-6-2.2-11.9-4.8-17.9-7.5V65.9z"></path>
					<path class="st4" d="M83.1,52.3l-6.4-16.2c-5.8-1.8-11.8-3.3-18.4-4.4l13.1,34.8c1.3,0.2,2.7,0.4,4.1,0.5       c6.4,0.8,11.5,1.3,16,1.4l8.7-23.2c-4-1.8-8.1-3.6-12.4-5.2L83.1,52.3z"></path>
					<path class="st4" d="M37.1,30.8v26.8c4.4,1.9,9.7,3.8,16.5,5.5V31c-3.1-0.4-6.4-0.7-9.7-0.8C41.7,30.1,39.4,30.3,37.1,30.8z"></path>
				</g>
				<g>
					<path class="st4" d="M179.7,35.6c-4.5,1.7-9.1,3.5-13.9,5.6c-2.7,1.2-5.2,2.3-7.6,3.4h9.3C173.1,44.6,178,40.8,179.7,35.6z"></path>
					<path class="st4" d="M154.3,63.3c-0.4,0-0.7-0.1-1.1-0.1V46.7c-7.3,3.3-13.4,6.1-18.6,8.6v4.1V72v5.4h39.5       c5.2,0,9.7-3.1,11.7-7.5c0.8-1.7,1.2-3.5,1.2-5.5v-1.1h-17.9H154.3z"></path>
					<path class="st4" d="M190.4,59.3v10.4v7.7h3.5c5.6,0,10.4-3.6,12.2-8.6c0.5-1.4,0.8-2.9,0.8-4.4v-11V27.6       c-5.3,1.1-10.7,2.6-16.5,4.3V59.3z"></path>
					<path class="st4" d="M278.6,32.9c-4.5-2-9.6-3.9-15.3-5.4v8.1v41.9h17.8V34.1C280.3,33.7,279.5,33.3,278.6,32.9z"></path>
					<path class="st4" d="M244,32.4l-6.2,16.1l-1.4,3.7l-1.6-4.1l-9-22.7l-0.3-0.6c-0.4,0-0.8,0.1-1.3,0.1       c-4.6,0.4-9.4,1.1-14.4,2.1l8.2,21.9l7,18.7l2.2,6h15.5l3.1-8.3l4.9-13.1l6.4-16.9l3.2-8.4c-4.2-0.9-8.7-1.7-13.5-2.1L244,32.4       z"></path>
					<path class="st4" d="M11.3,50c0,4.5,0,7.7-1.8,10.4C7.7,63,4.5,64,1,64c-4.1,0-8.9-1.4-8.9-1.4h-0.8v5.2v9.1       c0,0,4.5,1.1,11.1,1.1c7.6,0,14.8-1.5,20-5.8c1.3-1.1,2.5-2.3,3.5-3.7c3.1-4.4,4-9.5,4.3-14.3c-8.2-4.7-12.5-9.1-18.9-11.1       C11.3,43.1,11.3,50,11.3,50z"></path>
					<path class="st4" d="M37.1,72.9v4.6h3.5c3.8,0,7.3-1.7,9.6-4.3c2.1-2.3,3.3-5.3,3.3-8.7v-1.4c-6.8-1.7-12.1-3.6-16.5-5.5       L37.1,72.9L37.1,72.9z"></path>
					<path class="st4" d="M71.3,66.5l2.5,6.7l0.1,0.4h15.5l0.2-0.5l1.7-4.6c-4.5-0.1-9.6-0.6-16-1.4C74,66.9,72.7,66.7,71.3,66.5z"></path>
					<path class="st4" d="M109.9,72.8v4.7h17.9v-5.2V58.5c-7.3,3.4-12.9,5.8-17.9,7.4V72.8z"></path>
				</g>
				<g>
					<g>
						<path class="st4" d="M11.3,12.7v28.9c6.1-3.7,12.7-7,19-9.1V-0.3h-6C17.1-0.3,11.3,5.5,11.3,12.7z"></path>
						<path class="st4" d="M263.3,25.7v1.8c5.7,1.5,10.8,3.3,15.3,5.4c0.9,0.4,1.7,0.8,2.5,1.2v-2v-2        C276.9,30.9,271.4,29.8,263.3,25.7z"></path>
						<path class="st4" d="M246.9,24.7c4.8,0.4,9.3,1.1,13.5,2.1l0.8-2.2c-3.4-1.8-7.2-4.2-11.5-7.1L246.9,24.7z"></path>
						<path class="st4" d="M47.5-0.3H37.1v31c2.4-0.4,4.7-0.6,6.8-0.5c3.4,0.2,6.6,0.4,9.7,0.8V19.1l4.7,12.6        c6.5,1.1,12.6,2.6,18.4,4.4l-8.8-22.3C60.1,9.5,53,4.5,47.5-0.3z"></path>
						<path class="st4" d="M94.1,23.3L87.7,40c4.3,1.7,8.4,3.4,12.4,5.2l8.2-22C103.8,24.1,99,24,94.1,23.3z"></path>
						<path class="st4" d="M109.9,23v26.7c5.9,2.7,11.8,5.3,17.9,7.5V14c-2,1.1-4,2.4-6.2,3.9C118,20.4,114,22.1,109.9,23z"></path>
						<path class="st4" d="M134.6,10.6v44.8c5.3-2.5,11.4-5.3,18.6-8.6v-2.2h4.9c2.4-1.1,5-2.2,7.6-3.4c4.8-2.1,9.4-3.9,13.9-5.6        c0.4-1.3,0.6-2.6,0.6-4v-1.3h-27.1V13.8h19.1c4.7,0,8.8-2.5,11.1-6.3C168.2,10.7,155.9,1.3,134.6,10.6z"></path>
						<path class="st4" d="M215.6-0.3h-16.2c-3.2,2.5-6.1,4.3-9,5.6V32c5.8-1.8,11.2-3.2,16.5-4.3v-8.5l3,7.9c5-1,9.8-1.7,14.4-2.1        c0.4,0,0.8-0.1,1.3-0.1l-7.2-18.2L215.6-0.3z"></path>
					</g>
					<path class="st4" d="M108.4,23.3c0.5-0.1,1-0.2,1.5-0.3v-3.8L108.4,23.3z"></path>
					<g>
						<path class="st4" d="M62.3-0.3H52h-4.4C53.2,4.5,60.2,9.5,68,13.8l-1.9-4.9L62.3-0.3z"></path>
						<path class="st4" d="M100,8.1l-3,7.8l-2.8,7.4c4.8,0.7,9.6,0.8,14.3,0l1.5-4.1V23c4.1-0.9,8-2.5,11.7-5.1        c2.1-1.5,4.2-2.8,6.2-3.9V1.7v-2h-15.8C106.7-0.3,101.9,3,100,8.1z"></path>
						<path class="st4" d="M134.6,10.6c21.3-9.3,33.6,0.2,48.8-3c1.2-2,1.9-4.3,1.9-6.7v-1.1h-50.7L134.6,10.6L134.6,10.6z"></path>
						<path class="st4" d="M190.4-0.3v5.6c2.8-1.3,5.8-3.1,9-5.6H190.4z"></path>
					</g>
				</g>
			</g>
			<g>
				<path class="st4" d="M292.9-0.3l18.1,68l19.7-65.5h6.8L356,67.7l19.2-68h6.3l-22.8,77.7h-6.4l-18.9-66l-19.7,66h-6.8L285.7-0.3      L292.9-0.3L292.9-0.3z"></path>
				<path class="st4" d="M403.5-0.3v77.7h-6.8V-0.3L403.5-0.3L403.5-0.3z"></path>
				<path class="st4" d="M433-0.3V72h33.9v5.4h-40.7V-0.3L433-0.3L433-0.3z"></path>
				<path class="st4" d="M521.7-0.3v5.4h-34.4v28.7h29.4v5.4h-29.4V72h36v5.4h-42.8V-0.3L521.7-0.3L521.7-0.3z"></path>
				<path class="st4" d="M547.9,43v34.5h-6.8V-0.2h21.6c5,0,11.5-0.1,17.3,3.7c6,4,8.4,10.1,8.4,17.5c0,13.2-7.5,19.4-16.7,21.4      l21.2,35.1h-8L564.3,43L547.9,43L547.9,43z M547.9,37.7h14.8c2.6,0,8.6-0.1,12.7-2.9c3.5-2.5,5.8-7.2,5.8-13.4      c0-6-2.1-10.8-5.8-13.3c-4.1-2.8-10.1-2.8-12.7-2.8h-14.8V37.7z"></path>
			</g>
		</g>
	</g>
</g>
</svg>
