<svg xmlns="http://www.w3.org/2000/svg" viewBox="555 0 120 80" width="64" height="64">
<style>.s{fill:#10698C;}</style>
<path class="s" d="M636.3,53.4c0.8-6.2-4.3-12.7-4.3-12.7c-4.6,8.4-24.6,29-23.5,0c0,0-7.9,4.6-12.8,12.5c12.5,0.1,12.4,22.2,8.6,36C614.9,60.8,630,52.2,636.3,53.4z"/>
<path class="s" d="M623.3,48.7c3.2-3.1,4.7-7.6,2.4-10s-7.5-1.8-10.7,1.3c-3.2,3.1-4.3,8.1-2.1,10.5C615.3,52.8,620.1,51.7,623.3,48.7z"/>
<path class="s" d="M600.7,70.8c0,0-33.8-6.7-30.2-22.5c3-10.3,19.3-16.8,40.7-14.7c-20.4-5.3-42.7,0.7-46,13.3C560,68.2,600.7,70.8,600.7,70.8z"/>
<path class="s" d="M667.4,35.6c-4.2-19-41.5-41.4-87.9-28.4c54.8-5.8,73.2,20.6,73.2,20.6s26.7,30-33.6,44.2C656.8,69.2,671.6,54.6,667.4,35.6z"/>
</svg>
